<svg xmlns="http://www.w3.org/2000/svg" width="45" height="40" viewBox="0 0 45 40">
    <g fill="none" fill-rule="evenodd">
        <path d="M-8-10h60v60H-8z"/>
        <path fill="#DDD" fill-rule="nonzero" d="M34.272 24.425h7.056a2.88 2.88 0 0 1 2.875 2.885 2.88 2.88 0 0 1-2.875 2.884h-3.76l2.578 4.51a2.899 2.899 0 0 1-1.06 3.945 2.876 2.876 0 0 1-3.933-1.052L24.373 18.96c-.001-.003-.636-1.14-.432-3.744.105-1.338.88-2.938 2.327-4.799l8.004 14.008zM22.2 3.473l1.099-1.91A2.873 2.873 0 0 1 25.789.12c1.027 0 1.976.55 2.49 1.442a2.893 2.893 0 0 1 0 2.884L16.784 24.425h8.793c.322.1 2.86 1.723 2.883 4.077.007.765-.144 1.33-.456 1.692H2.875A2.88 2.88 0 0 1 0 27.31a2.88 2.88 0 0 1 2.875-2.885h7.269L18.88 9.242l-2.828-4.915a2.893 2.893 0 0 1 0-2.885A2.873 2.873 0 0 1 18.542 0c1.027 0 1.976.55 2.49 1.442L22.2 3.473zM6.067 31.721s.646-.534 2.116-.504c.982.02 2.244.624 3.79 1.813l-2.845 4.609a2.96 2.96 0 0 1-4.003 1.01 2.743 2.743 0 0 1-.944-3.828c.609-.966 1.237-2 1.887-3.1z"/>
    </g>
</svg>
