<svg xmlns="http://www.w3.org/2000/svg" width="1920" height="733" viewBox="0 0 1920 733">
    <g fill="none" fill-rule="evenodd" stroke-width="6">
        <path stroke="#0AA1FF" d="M-107 805.222c87.776-107.326 314.82-154.893 681.13-142.703 549.467 18.286 469.523-495.948 745.98-250.94 276.458 245.009 110.435-221.864 278.506-348.366 112.047-84.334 254.222-79.249 426.526 15.257"/>
        <path stroke="#E8D21B" d="M-107 616.848c175.172 5.342 393.408 27.243 654.71 65.703 391.95 57.69 523.235-136.075 638.606-78.76 115.37 57.314 365.845 277.15 264.643-60.947-101.202-338.096 35.672-502.156 310.502-402.417 183.22 66.493 271.114 8.954 263.681-172.616"/>
    </g>
</svg>
