<svg xmlns="http://www.w3.org/2000/svg" width="38" height="35" viewBox="0 0 38 35">
    <g fill="none" fill-rule="evenodd">
        <path d="M-11-13h60v60h-60z"/>
        <g fill="#2E71F2" fill-rule="nonzero">
            <path d="M18.568.027a3.889 3.889 0 0 0-3.886 3.883 3.889 3.889 0 0 0 3.886 3.883 3.889 3.889 0 0 0 3.887-3.883A3.89 3.89 0 0 0 18.568.027zm0 5.177c-.714 0-1.295-.58-1.295-1.294a1.296 1.296 0 0 1 2.59 0c0 .714-.58 1.294-1.295 1.294zM35.41 13.401c0 1.272-.792 2.362-1.908 2.806a6.486 6.486 0 0 0-6.297-4.963H16.04A6.453 6.453 0 0 0 9.93 6.93H8.637v4.444a6.495 6.495 0 0 0-5.051 5.047H0v10.355h3.585a6.497 6.497 0 0 0 4.188 4.806v3.391h2.59v-3.02h2.592v3.02h2.59v-3.02h6.046v3.02h2.59v-3.02h2.592v3.02h2.59v-3.391c2.514-.89 4.319-3.288 4.319-6.1v-6.624C36.154 18.272 38 16.048 38 13.4h-2.59zm-4.32 12.08a3.889 3.889 0 0 1-3.885 3.883H9.932a3.89 3.89 0 0 1-3.887-3.883v-1.294H2.591V19.01h3.454v-1.294a3.89 3.89 0 0 1 3.887-3.883h1.295V9.738a3.865 3.865 0 0 1 2.536 3.015l.181 1.08h13.26a3.889 3.889 0 0 1 3.887 3.883v7.765z"/>
            <path d="M15.114 16.421h6.909v2.589h-6.909z"/>
        </g>
    </g>
</svg>
