<svg xmlns="http://www.w3.org/2000/svg" width="35" height="40" viewBox="0 0 35 40">
    <g fill="none" fill-rule="evenodd">
        <path d="M-13-9h60v60h-60z"/>
        <g fill="#2E71F2" fill-rule="nonzero">
            <path d="M32.056 10.273l.991.988 1.983-1.975-3.966-3.95-1.982 1.975.991.988-1.368 1.362a17.279 17.279 0 0 0-7.399-3.684 4.15 4.15 0 0 0 .415-1.815c0-2.31-1.887-4.188-4.206-4.188-2.319 0-4.206 1.879-4.206 4.188 0 .65.15 1.266.415 1.815A17.278 17.278 0 0 0 6.326 9.66L4.957 8.3l.992-.988-1.983-1.974L0 9.287l1.983 1.974.991-.988 1.369 1.363a17.103 17.103 0 0 0-4.12 11.143C.223 32.275 7.98 40 17.515 40c9.535 0 17.293-7.725 17.293-17.22 0-4.247-1.553-8.138-4.12-11.144l1.368-1.363zm-14.54-7.507a1.4 1.4 0 0 1 1.401 1.396 1.4 1.4 0 0 1-1.402 1.397 1.4 1.4 0 0 1-1.402-1.397 1.4 1.4 0 0 1 1.402-1.396zM32.002 22.78c0 7.956-6.5 14.428-14.488 14.428-7.989 0-14.488-6.472-14.488-14.428 0-7.955 6.5-14.428 14.488-14.428 7.989 0 14.488 6.473 14.488 14.428z"/>
            <path d="M18.767 21.519V11.263h-2.504V21.52c-.491.42-.808 1.079-.808 1.82 0 1.264.924 2.293 2.06 2.293 1.136 0 2.06-1.03 2.06-2.294 0-.74-.317-1.4-.808-1.82z"/>
        </g>
    </g>
</svg>
