<svg xmlns="http://www.w3.org/2000/svg" width="38" height="42" viewBox="0 0 38 42">
    <g fill="none" fill-rule="evenodd" opacity=".588">
        <path d="M-11-9h60v60h-60z"/>
        <path fill="#C4C4C4" fill-rule="nonzero" d="M34.387 16.32c1.895 1.084 2.933 2.591 2.933 4.25 0 1.659-1.04 3.175-2.936 4.257l-4.54 2.596-5.708-6.952 5.602-6.811 4.649 2.66zM4.267 41.144C1.717 41.114.004 39.046 0 35.977v-30.8C0 2.079 1.736 0 4.32 0c.053 0 .109.024.162.026L21.27 20.473 4.267 41.144zm23.517-28.593l-5.08 6.175L8.656 1.613 27.784 12.55zm-5.082 9.662l5.191 6.323L8.283 39.75l14.42-17.537z"/>
    </g>
</svg>
