<svg xmlns="http://www.w3.org/2000/svg" width="38" height="34" viewBox="0 0 38 34">
    <g fill="none" fill-rule="evenodd">
        <path d="M-11-13h60v60h-60z"/>
        <path fill="#2E71F2" fill-rule="nonzero" d="M33.382 6.6h1.525V3.96H20.326V0h-2.652v3.96H3.093V6.6h1.525L0 17.33v.272c0 3.64 2.973 6.6 6.628 6.6 3.654 0 6.628-2.96 6.628-6.6v-.271L8.638 6.6h9.036v18.481h-4.092l-2.525 8.801h15.886l-2.524-8.8h-4.093V6.6h9.036l-4.618 10.73v.27c0 3.64 2.973 6.601 6.628 6.601 3.655 0 6.628-2.96 6.628-6.6v-.271L33.382 6.6zM6.628 21.563a3.982 3.982 0 0 1-3.749-2.64h7.498a3.982 3.982 0 0 1-3.75 2.64zm3.292-5.28H3.336l3.292-7.65 3.292 7.65zm12.499 11.44l1.01 3.52H14.57l1.01-3.52h6.838zm8.953-19.09l3.292 7.65H28.08l3.292-7.65zm0 12.93a3.982 3.982 0 0 1-3.749-2.64h7.498a3.982 3.982 0 0 1-3.749 2.64z"/>
    </g>
</svg>
