<svg xmlns="http://www.w3.org/2000/svg" xmlns:xlink="http://www.w3.org/1999/xlink" width="161" height="37" viewBox="0 0 161 37">
    <defs>
        <path id="a" d="M15.431.287l-2.347 2.345c-.93-.94-1.547-1.478-1.563-1.492l-.757-.66-1.32 1.514.757.66.004.004c.058.05.625.553 1.458 1.395L9.107 6.608c-.966-.921-1.61-1.455-1.624-1.468L6.71 4.5 5.427 6.046l.774.64.001.002c.038.031.619.517 1.483 1.34l-2.087 2.086 1.422 1.42 2.089-2.088a41.68 41.68 0 0 1 2.434 2.76L9.25 14.497l1.42 1.42 2.098-2.095c.437.616.858 1.253 1.245 1.906l.512.864 1.73-1.024-.513-.863c-.479-.807-1-1.58-1.536-2.32l2.365-2.364c.821 1.232 1.591 2.56 2.21 3.939.911 2.028 1.496 4.157 1.494 6.239a10.1 10.1 0 0 1-.69 3.728c-.475 1.209-1.216 2.403-2.307 3.571l-.047.051-.054.058a8.94 8.94 0 0 1-2.732 2.035 8.29 8.29 0 0 1-3.584.8 8.824 8.824 0 0 1-6.259-2.59 8.81 8.81 0 0 1-2.592-6.255c0-2.372.93-4.516 2.447-6.107l.693-.726-1.453-1.387-.694.727A10.817 10.817 0 0 0 0 21.597a10.82 10.82 0 0 0 3.181 7.674 10.834 10.834 0 0 0 7.68 3.18c1.625 0 3.125-.367 4.446-.995 1-.476 1.899-1.098 2.683-1.822l.02.018.689-.73.008-.01.005-.005.675-.744-.014-.012c.925-1.122 1.614-2.294 2.083-3.49.579-1.473.83-2.979.83-4.462-.002-2.497-.702-4.927-1.719-7.166-.726-1.594-1.614-3.094-2.547-4.46l2.484-2.482-1.42-1.42-2.257 2.255a44.136 44.136 0 0 0-2.362-2.833l2.387-2.386-1.42-1.42zM10.53 8.026l2.513-2.512a41.83 41.83 0 0 1 2.35 2.845l-2.421 2.42a44.423 44.423 0 0 0-2.442-2.753z"/>
    </defs>
    <g fill="none" fill-rule="evenodd" stroke-width="2.059" transform="translate(2 1)">
        <path fill="#000" stroke="#000" d="M75.464 17.568a5.417 5.417 0 0 1 3.844-1.59c1.504 0 2.857.606 3.844 1.59.76.76 1.29 1.74 1.496 2.837H73.969a5.413 5.413 0 0 1 1.495-2.837m3.844-3.599c-2.053 0-3.92.834-5.264 2.18a7.418 7.418 0 0 0-2.18 5.26 7.42 7.42 0 0 0 2.18 5.262 7.427 7.427 0 0 0 5.264 2.179h1.005v-2.008h-1.005a5.417 5.417 0 0 1-3.844-1.591 5.415 5.415 0 0 1-1.495-2.837h11.78a1.01 1.01 0 0 0 1.005-1.004 7.42 7.42 0 0 0-2.181-5.262 7.43 7.43 0 0 0-5.265-2.179M51.085 19.685a6.991 6.991 0 0 0-.463-2.28A5.889 5.889 0 0 0 50 16.214a4.953 4.953 0 0 0-1.76-1.586c-.776-.415-1.738-.66-2.873-.659h-5.809c-.265 0-.523.107-.71.294a1.01 1.01 0 0 0-.295.71V28.85h2.01V15.977h4.804c1.013.003 1.677.244 2.168.568.368.245.644.55.862.887.326.505.506 1.087.593 1.537a4.977 4.977 0 0 1 .086.687v9.194h2.01v-9.165zM30.553 28.85h2.01V13.969h-2.01zM66.565 25.165a5.42 5.42 0 0 1-3.928 1.677 5.415 5.415 0 0 1-3.757-1.507 5.412 5.412 0 0 1-1.678-3.927 5.406 5.406 0 0 1 1.508-3.754 5.416 5.416 0 0 1 3.928-1.677c1.354.001 2.701.498 3.757 1.507l.726.694 1.39-1.45-.727-.695a7.427 7.427 0 0 0-5.146-2.064 7.43 7.43 0 0 0-5.38 2.297 7.418 7.418 0 0 0-2.066 5.142 7.42 7.42 0 0 0 2.3 5.378 7.426 7.426 0 0 0 5.145 2.064 7.43 7.43 0 0 0 5.38-2.297l.695-.726-1.452-1.388-.695.726zM99.97 25.335a5.414 5.414 0 0 1-3.756 1.507 5.419 5.419 0 0 1-3.929-1.678l-.113-.117v-7.292l.283-.27a5.413 5.413 0 0 1 3.757-1.508 5.418 5.418 0 0 1 3.929 1.678 5.409 5.409 0 0 1 1.508 3.753 5.412 5.412 0 0 1-1.679 3.927m-3.758-11.366a7.433 7.433 0 0 0-4.04 1.193v-1.193h-2.01v11.835l-.024.023.025.026v8.358h2.01v-6.553a7.443 7.443 0 0 0 9.187-.872 7.422 7.422 0 0 0 2.298-5.378 7.418 7.418 0 0 0-2.065-5.142 7.428 7.428 0 0 0-5.38-2.297M109.234 8.982h-2.009v12.427c0 2.052.835 3.919 2.18 5.261a7.427 7.427 0 0 0 5.265 2.18h1.005v-2.008h-1.005a5.416 5.416 0 0 1-3.843-1.591 5.407 5.407 0 0 1-1.593-3.842v-5.023h6.441v-2.008h-6.44V8.982zM121.483 28.85h2.01V13.969h-2.01zM138.215 25.25a5.416 5.416 0 0 1-3.843 1.592 5.416 5.416 0 0 1-3.844-1.591 5.408 5.408 0 0 1-1.592-3.842c0-1.503.607-2.855 1.592-3.84a5.416 5.416 0 0 1 3.844-1.592c1.504.001 2.856.607 3.843 1.591a5.407 5.407 0 0 1 1.593 3.841 5.409 5.409 0 0 1-1.593 3.842m-3.843-11.282a7.43 7.43 0 0 0-5.265 2.18 7.42 7.42 0 0 0-2.18 5.26 7.42 7.42 0 0 0 2.18 5.261 7.427 7.427 0 0 0 5.265 2.18c2.053 0 3.92-.834 5.264-2.18a7.42 7.42 0 0 0 2.181-5.26 7.42 7.42 0 0 0-2.18-5.262 7.43 7.43 0 0 0-5.265-2.179M157.171 28.85v-9.165a6.988 6.988 0 0 0-.463-2.28 5.894 5.894 0 0 0-.624-1.191 4.953 4.953 0 0 0-1.76-1.586c-.776-.415-1.738-.66-2.872-.659h-5.81c-.264 0-.522.107-.71.294a1.011 1.011 0 0 0-.294.71V28.85h2.01V15.977h4.804c1.013.003 1.677.244 2.168.568.368.245.644.55.862.887.326.505.506 1.086.593 1.537a4.977 4.977 0 0 1 .086.687v9.193h2.01z"/>
        <use fill="#03B4EC" stroke="#01B4EB" xlink:href="#a"/>
    </g>
</svg>
