<svg xmlns="http://www.w3.org/2000/svg" width="34" height="36" viewBox="0 0 34 36">
    <g fill="none" fill-rule="evenodd">
        <path d="M-13-12h60v60h-60z"/>
        <g fill="#2E71F2" fill-rule="nonzero">
            <path d="M19.8 16.075h-1.4v-2.85h1.4c.801 0 1.586.136 2.333.405l.934-2.687a9.62 9.62 0 0 0-3.267-.568h-1.4V8h-2.8v2.375h-1.4c-2.316 0-4.2 1.918-4.2 4.275s1.884 4.275 4.2 4.275h1.4v2.85h-1.4a6.871 6.871 0 0 1-2.333-.405l-.934 2.687a9.62 9.62 0 0 0 3.267.568h1.4V27h2.8v-2.375h1.4c2.316 0 4.2-1.918 4.2-4.275s-1.884-4.275-4.2-4.275zm-4.2 0h-1.4c-.772 0-1.4-.64-1.4-1.425 0-.786.628-1.425 1.4-1.425h1.4v2.85zm4.2 5.7h-1.4v-2.85h1.4c.772 0 1.4.64 1.4 1.425 0 .786-.628 1.425-1.4 1.425z"/>
            <path d="M32.622 5.139c-8.825 0-14.244-2.993-14.244-5.139h-2.756c0 2.146-5.419 5.139-14.244 5.139H0V6.54c0 6.75 1.597 13.134 4.619 18.463 2.973 5.244 7.203 9.088 11.911 10.824L17 36l.47-.173c4.708-1.736 8.938-5.58 11.911-10.824C32.403 19.673 34 13.29 34 6.54V5.14h-1.378zM17 33.009C8.905 29.728 3.198 19.613 2.781 7.918c3.827-.137 7.396-.834 10.171-1.995 1.764-.739 3.129-1.64 4.048-2.653.92 1.013 2.284 1.914 4.048 2.653 2.775 1.161 6.344 1.858 10.17 1.995C30.803 19.612 25.096 29.727 17 33.01z"/>
        </g>
    </g>
</svg>
