<svg xmlns="http://www.w3.org/2000/svg" width="44" height="25" viewBox="0 0 44 25">
    <g fill="none" fill-rule="evenodd">
        <path d="M-8-18h60v60H-8z"/>
        <g fill="#2E71F2" fill-rule="nonzero">
            <path d="M39.875 0H16.958c-1.562 0-2.96.721-3.886 1.852H0v21.296h13.072A5.014 5.014 0 0 0 16.958 25h9.167c2.275 0 4.125-1.87 4.125-4.167 0-.66-.153-1.285-.425-1.84a4.176 4.176 0 0 0 2.258-3.715c0-.66-.152-1.285-.424-1.84a4.176 4.176 0 0 0 2.258-3.716c0-.486-.083-.954-.236-1.389h6.194C42.15 8.333 44 6.464 44 4.167 44 1.869 42.15 0 39.875 0zM11.917 5.093V20.37H2.75V4.63h9.167v.463zm27.958.463H29.792v2.777c.758 0 1.375.623 1.375 1.39 0 .765-.617 1.388-1.375 1.388h-1.834v2.778c.759 0 1.375.623 1.375 1.389s-.616 1.389-1.375 1.389h-1.833v2.777c.758 0 1.375.623 1.375 1.39 0 .765-.617 1.388-1.375 1.388h-9.167c-1.263 0-2.291-1.038-2.291-2.315V5.093c0-1.277 1.028-2.315 2.291-2.315h22.917c.758 0 1.375.623 1.375 1.389 0 .765-.617 1.389-1.375 1.389z"/>
            <path d="M8 11c-1.103 0-2 .897-2 2s.897 2 2 2 2-.897 2-2-.897-2-2-2z"/>
        </g>
    </g>
</svg>
